<svg width="99" height="29" viewBox="0 0 99 29" fill="none" xmlns="http://www.w3.org/2000/svg">
<path d="M12.696 23L9.456 18.32H9.264H5.88V23H1.992V6.2H9.264C10.752 6.2 12.04 6.448 13.128 6.944C14.232 7.44 15.08 8.144 15.672 9.056C16.264 9.968 16.56 11.048 16.56 12.296C16.56 13.544 16.256 14.624 15.648 15.536C15.056 16.432 14.208 17.12 13.104 17.6L16.872 23H12.696ZM12.624 12.296C12.624 11.352 12.32 10.632 11.712 10.136C11.104 9.624 10.216 9.368 9.048 9.368H5.88V15.224H9.048C10.216 15.224 11.104 14.968 11.712 14.456C12.32 13.944 12.624 13.224 12.624 12.296ZM32.0244 16.592C32.0244 16.64 32.0004 16.976 31.9524 17.6H22.1844C22.3604 18.4 22.7764 19.032 23.4324 19.496C24.0884 19.96 24.9044 20.192 25.8804 20.192C26.5524 20.192 27.1444 20.096 27.6564 19.904C28.1844 19.696 28.6724 19.376 29.1204 18.944L31.1124 21.104C29.8964 22.496 28.1204 23.192 25.7844 23.192C24.3284 23.192 23.0404 22.912 21.9204 22.352C20.8004 21.776 19.9364 20.984 19.3284 19.976C18.7204 18.968 18.4164 17.824 18.4164 16.544C18.4164 15.28 18.7124 14.144 19.3044 13.136C19.9124 12.112 20.7364 11.32 21.7764 10.76C22.8324 10.184 24.0084 9.896 25.3044 9.896C26.5684 9.896 27.7124 10.168 28.7364 10.712C29.7604 11.256 30.5604 12.04 31.1364 13.064C31.7284 14.072 32.0244 15.248 32.0244 16.592ZM25.3284 12.728C24.4804 12.728 23.7684 12.968 23.1924 13.448C22.6164 13.928 22.2644 14.584 22.1364 15.416H28.4964C28.3684 14.6 28.0164 13.952 27.4404 13.472C26.8644 12.976 26.1604 12.728 25.3284 12.728ZM40.7571 23.192C39.3811 23.192 38.1411 22.912 37.0371 22.352C35.9491 21.776 35.0931 20.984 34.4691 19.976C33.8611 18.968 33.5571 17.824 33.5571 16.544C33.5571 15.264 33.8611 14.12 34.4691 13.112C35.0931 12.104 35.9491 11.32 37.0371 10.76C38.1411 10.184 39.3811 9.896 40.7571 9.896C42.1171 9.896 43.3011 10.184 44.3091 10.76C45.3331 11.32 46.0771 12.128 46.5411 13.184L43.6371 14.744C42.9651 13.56 41.9971 12.968 40.7331 12.968C39.7571 12.968 38.9491 13.288 38.3091 13.928C37.6691 14.568 37.3491 15.44 37.3491 16.544C37.3491 17.648 37.6691 18.52 38.3091 19.16C38.9491 19.8 39.7571 20.12 40.7331 20.12C42.0131 20.12 42.9811 19.528 43.6371 18.344L46.5411 19.928C46.0771 20.952 45.3331 21.752 44.3091 22.328C43.3011 22.904 42.1171 23.192 40.7571 23.192ZM48.6968 10.088H52.4408V23H48.6968V10.088ZM50.5688 8.288C49.8808 8.288 49.3208 8.088 48.8888 7.688C48.4568 7.288 48.2408 6.792 48.2408 6.2C48.2408 5.608 48.4568 5.112 48.8888 4.712C49.3208 4.312 49.8808 4.112 50.5688 4.112C51.2568 4.112 51.8168 4.304 52.2488 4.688C52.6808 5.072 52.8968 5.552 52.8968 6.128C52.8968 6.752 52.6808 7.272 52.2488 7.688C51.8168 8.088 51.2568 8.288 50.5688 8.288ZM63.5475 9.896C64.7475 9.896 65.8355 10.176 66.8115 10.736C67.8035 11.28 68.5795 12.056 69.1395 13.064C69.6995 14.056 69.9795 15.216 69.9795 16.544C69.9795 17.872 69.6995 19.04 69.1395 20.048C68.5795 21.04 67.8035 21.816 66.8115 22.376C65.8355 22.92 64.7475 23.192 63.5475 23.192C61.8995 23.192 60.6035 22.672 59.6595 21.632V27.656H55.9155V10.088H59.4915V11.576C60.4195 10.456 61.7715 9.896 63.5475 9.896ZM62.8995 20.12C63.8595 20.12 64.6435 19.8 65.2515 19.16C65.8755 18.504 66.1875 17.632 66.1875 16.544C66.1875 15.456 65.8755 14.592 65.2515 13.952C64.6435 13.296 63.8595 12.968 62.8995 12.968C61.9395 12.968 61.1475 13.296 60.5235 13.952C59.9155 14.592 59.6115 15.456 59.6115 16.544C59.6115 17.632 59.9155 18.504 60.5235 19.16C61.1475 19.8 61.9395 20.12 62.8995 20.12ZM85.1338 16.592C85.1338 16.64 85.1098 16.976 85.0618 17.6H75.2938C75.4698 18.4 75.8858 19.032 76.5418 19.496C77.1978 19.96 78.0138 20.192 78.9898 20.192C79.6618 20.192 80.2538 20.096 80.7658 19.904C81.2938 19.696 81.7818 19.376 82.2298 18.944L84.2218 21.104C83.0058 22.496 81.2298 23.192 78.8938 23.192C77.4378 23.192 76.1498 22.912 75.0298 22.352C73.9098 21.776 73.0458 20.984 72.4378 19.976C71.8298 18.968 71.5258 17.824 71.5258 16.544C71.5258 15.28 71.8218 14.144 72.4138 13.136C73.0218 12.112 73.8458 11.32 74.8858 10.76C75.9418 10.184 77.1178 9.896 78.4138 9.896C79.6778 9.896 80.8218 10.168 81.8458 10.712C82.8698 11.256 83.6698 12.04 84.2458 13.064C84.8378 14.072 85.1338 15.248 85.1338 16.592ZM78.4378 12.728C77.5898 12.728 76.8778 12.968 76.3018 13.448C75.7258 13.928 75.3738 14.584 75.2458 15.416H81.6058C81.4778 14.6 81.1258 13.952 80.5498 13.472C79.9738 12.976 79.2698 12.728 78.4378 12.728ZM91.9704 23.192C90.8984 23.192 89.8504 23.064 88.8264 22.808C87.8024 22.536 86.9864 22.2 86.3784 21.8L87.6264 19.112C88.2024 19.48 88.8984 19.784 89.7144 20.024C90.5304 20.248 91.3304 20.36 92.1144 20.36C93.6984 20.36 94.4904 19.968 94.4904 19.184C94.4904 18.816 94.2744 18.552 93.8424 18.392C93.4104 18.232 92.7464 18.096 91.8504 17.984C90.7944 17.824 89.9224 17.64 89.2344 17.432C88.5464 17.224 87.9464 16.856 87.4344 16.328C86.9384 15.8 86.6904 15.048 86.6904 14.072C86.6904 13.256 86.9224 12.536 87.3864 11.912C87.8664 11.272 88.5544 10.776 89.4504 10.424C90.3624 10.072 91.4344 9.896 92.6664 9.896C93.5784 9.896 94.4824 10 95.3784 10.208C96.2904 10.4 97.0424 10.672 97.6344 11.024L96.3864 13.688C95.2504 13.048 94.0104 12.728 92.6664 12.728C91.8664 12.728 91.2664 12.84 90.8664 13.064C90.4664 13.288 90.2664 13.576 90.2664 13.928C90.2664 14.328 90.4824 14.608 90.9144 14.768C91.3464 14.928 92.0344 15.08 92.9784 15.224C94.0344 15.4 94.8984 15.592 95.5704 15.8C96.2424 15.992 96.8264 16.352 97.3224 16.88C97.8184 17.408 98.0664 18.144 98.0664 19.088C98.0664 19.888 97.8264 20.6 97.3464 21.224C96.8664 21.848 96.1624 22.336 95.2344 22.688C94.3224 23.024 93.2344 23.192 91.9704 23.192Z" fill="#FDB100"/>
</svg>
